STARTFONT 2.1
COMMENT screen font, 7 x 14 pixels
FONT -misc-fixed-medium-r-normal--14-130-75-75-c-70-iso8859-2
SIZE 14 75 75
FONTBOUNDINGBOX 7 14 0 -2
STARTPROPERTIES 25
FONT_ASCENT 12
FONT_DESCENT 2
DEFAULT_CHAR 0
FONTNAME_REGISTRY ""
FOUNDRY "Misc"
FAMILY_NAME "Fixed"
WEIGHT_NAME "Medium"
SLANT "R"
SETWIDTH_NAME "Normal"
ADD_STYLE_NAME ""
PIXEL_SIZE 14
POINT_SIZE 130
RESOLUTION_X 75
RESOLUTION_Y 75
SPACING "C"
AVERAGE_WIDTH 70
CHARSET_REGISTRY "ISO8859"
CHARSET_ENCODING "2"
COPYRIGHT "Libor Skarvada, libor@informatics.muni.cz"
FONT "-Misc-Fixed-Medium-R-Normal--14-130-75-75-C-70-ISO8859-2"
WEIGHT 10
RESOLUTION 103
CAP_HEIGHT 9
X_HEIGHT 7
QUAD_WIDTH 7
ENDPROPERTIES
CHARS 224
STARTCHAR 0
ENCODING 0
SWIDTH 517 0
DWIDTH 7 0
BBX 1 1 0 -2
BITMAP
00
ENDCHAR
STARTCHAR 1
ENCODING 1
SWIDTH 517 0
DWIDTH 7 0
BBX 6 10 0 0
BITMAP
30
30
78
78
fc
fc
78
78
30
30
ENDCHAR
STARTCHAR 2
ENCODING 2
SWIDTH 517 0
DWIDTH 7 0
BBX 7 14 0 -2
BITMAP
54
aa
54
aa
54
aa
54
aa
54
aa
54
aa
54
aa
ENDCHAR
STARTCHAR 3
ENCODING 3
SWIDTH 517 0
DWIDTH 7 0
BBX 6 11 0 -1
BITMAP
88
88
f8
88
88
00
7c
10
10
10
10
ENDCHAR
STARTCHAR 4
ENCODING 4
SWIDTH 517 0
DWIDTH 7 0
BBX 6 11 0 -1
BITMAP
f0
80
e0
80
80
00
3c
20
38
20
20
ENDCHAR
STARTCHAR 5
ENCODING 5
SWIDTH 517 0
DWIDTH 7 0
BBX 6 11 0 -1
BITMAP
70
80
80
80
70
00
38
24
38
28
24
ENDCHAR
STARTCHAR 6
ENCODING 6
SWIDTH 517 0
DWIDTH 7 0
BBX 6 11 0 -1
BITMAP
80
80
80
80
f0
00
3c
20
38
20
20
ENDCHAR
STARTCHAR 7
ENCODING 7
SWIDTH 517 0
DWIDTH 7 0
BBX 4 4 1 6
BITMAP
60
90
90
60
ENDCHAR
STARTCHAR 8
ENCODING 8
SWIDTH 517 0
DWIDTH 7 0
BBX 5 7 1 2
BITMAP
20
20
f8
20
20
00
f8
ENDCHAR
STARTCHAR 9
ENCODING 9
SWIDTH 517 0
DWIDTH 7 0
BBX 6 11 0 -1
BITMAP
88
c8
a8
98
88
00
20
20
20
20
3c
ENDCHAR
STARTCHAR 10
ENCODING 10
SWIDTH 517 0
DWIDTH 7 0
BBX 6 11 0 -1
BITMAP
88
88
88
50
20
00
7c
10
10
10
10
ENDCHAR
STARTCHAR 11
ENCODING 11
SWIDTH 517 0
DWIDTH 7 0
BBX 4 8 0 4
BITMAP
10
10
10
10
10
10
10
f0
ENDCHAR
STARTCHAR 12
ENCODING 12
SWIDTH 517 0
DWIDTH 7 0
BBX 4 7 0 -2
BITMAP
f0
10
10
10
10
10
10
ENDCHAR
STARTCHAR 13
ENCODING 13
SWIDTH 517 0
DWIDTH 7 0
BBX 4 7 3 -2
BITMAP
f0
80
80
80
80
80
80
ENDCHAR
STARTCHAR 14
ENCODING 14
SWIDTH 517 0
DWIDTH 7 0
BBX 4 8 3 4
BITMAP
80
80
80
80
80
80
80
f0
ENDCHAR
STARTCHAR 15
ENCODING 15
SWIDTH 517 0
DWIDTH 7 0
BBX 7 14 0 -2
BITMAP
10
10
10
10
10
10
10
fe
10
10
10
10
10
10
ENDCHAR
STARTCHAR 16
ENCODING 16
SWIDTH 517 0
DWIDTH 7 0
BBX 7 1 0 10
BITMAP
fe
ENDCHAR
STARTCHAR 17
ENCODING 17
SWIDTH 517 0
DWIDTH 7 0
BBX 7 1 0 7
BITMAP
fe
ENDCHAR
STARTCHAR 18
ENCODING 18
SWIDTH 517 0
DWIDTH 7 0
BBX 7 1 0 4
BITMAP
fe
ENDCHAR
STARTCHAR 19
ENCODING 19
SWIDTH 517 0
DWIDTH 7 0
BBX 7 1 0 1
BITMAP
fe
ENDCHAR
STARTCHAR 20
ENCODING 20
SWIDTH 517 0
DWIDTH 7 0
BBX 7 1 0 -2
BITMAP
fe
ENDCHAR
STARTCHAR 21
ENCODING 21
SWIDTH 517 0
DWIDTH 7 0
BBX 4 14 3 -2
BITMAP
80
80
80
80
80
80
80
f0
80
80
80
80
80
80
ENDCHAR
STARTCHAR 22
ENCODING 22
SWIDTH 517 0
DWIDTH 7 0
BBX 4 14 0 -2
BITMAP
10
10
10
10
10
10
10
f0
10
10
10
10
10
10
ENDCHAR
STARTCHAR 23
ENCODING 23
SWIDTH 517 0
DWIDTH 7 0
BBX 7 8 0 4
BITMAP
10
10
10
10
10
10
10
fe
ENDCHAR
STARTCHAR 24
ENCODING 24
SWIDTH 517 0
DWIDTH 7 0
BBX 7 7 0 -2
BITMAP
fe
10
10
10
10
10
10
ENDCHAR
STARTCHAR 25
ENCODING 25
SWIDTH 517 0
DWIDTH 7 0
BBX 1 14 3 -2
BITMAP
80
80
80
80
80
80
80
80
80
80
80
80
80
80
ENDCHAR
STARTCHAR 26
ENCODING 26
SWIDTH 517 0
DWIDTH 7 0
BBX 5 7 1 1
BITMAP
18
60
80
60
18
00
f8
ENDCHAR
STARTCHAR 27
ENCODING 27
SWIDTH 517 0
DWIDTH 7 0
BBX 5 7 1 1
BITMAP
c0
30
08
30
c0
00
f8
ENDCHAR
STARTCHAR 28
ENCODING 28
SWIDTH 517 0
DWIDTH 7 0
BBX 6 7 0 0
BITMAP
7c
c8
48
48
48
48
88
ENDCHAR
STARTCHAR 29
ENCODING 29
SWIDTH 517 0
DWIDTH 7 0
BBX 6 7 0 0
BITMAP
04
08
fc
30
fc
40
80
ENDCHAR
STARTCHAR 30
ENCODING 30
SWIDTH 517 0
DWIDTH 7 0
BBX 6 9 0 0
BITMAP
38
44
40
40
f0
40
40
44
b8
ENDCHAR
STARTCHAR 31
ENCODING 31
SWIDTH 517 0
DWIDTH 7 0
BBX 1 1 3 4
BITMAP
80
ENDCHAR
STARTCHAR 32
ENCODING 32
SWIDTH 517 0
DWIDTH 7 0
BBX 1 1 0 -2
BITMAP
00
ENDCHAR
STARTCHAR 33
ENCODING 33
SWIDTH 517 0
DWIDTH 7 0
BBX 1 9 3 0
BITMAP
80
80
80
80
80
80
00
80
80
ENDCHAR
STARTCHAR 34
ENCODING 34
SWIDTH 517 0
DWIDTH 7 0
BBX 5 4 1 7
BITMAP
d8
d8
d8
50
ENDCHAR
STARTCHAR 35
ENCODING 35
SWIDTH 517 0
DWIDTH 7 0
BBX 6 10 0 0
BITMAP
14
14
14
fc
28
28
fc
50
50
50
ENDCHAR
STARTCHAR 36
ENCODING 36
SWIDTH 517 0
DWIDTH 7 0
BBX 6 10 0 -1
BITMAP
10
78
94
90
50
38
94
94
78
10
ENDCHAR
STARTCHAR 37
ENCODING 37
SWIDTH 517 0
DWIDTH 7 0
BBX 6 10 0 0
BITMAP
64
94
98
70
10
20
38
64
a4
98
ENDCHAR
STARTCHAR 38
ENCODING 38
SWIDTH 517 0
DWIDTH 7 0
BBX 6 10 0 0
BITMAP
30
48
48
48
30
64
94
88
98
64
ENDCHAR
STARTCHAR 39
ENCODING 39
SWIDTH 517 0
DWIDTH 7 0
BBX 2 4 2 7
BITMAP
c0
40
40
80
ENDCHAR
STARTCHAR 40
ENCODING 40
SWIDTH 517 0
DWIDTH 7 0
BBX 4 13 2 -2
BITMAP
10
20
40
40
80
80
80
80
80
40
40
20
10
ENDCHAR
STARTCHAR 41
ENCODING 41
SWIDTH 517 0
DWIDTH 7 0
BBX 4 13 1 -2
BITMAP
80
40
20
20
10
10
10
10
10
20
20
40
80
ENDCHAR
STARTCHAR 42
ENCODING 42
SWIDTH 517 0
DWIDTH 7 0
BBX 5 7 1 3
BITMAP
20
a8
70
20
70
a8
20
ENDCHAR
STARTCHAR 43
ENCODING 43
SWIDTH 517 0
DWIDTH 7 0
BBX 5 7 1 1
BITMAP
20
20
20
f8
20
20
20
ENDCHAR
STARTCHAR 44
ENCODING 44
SWIDTH 517 0
DWIDTH 7 0
BBX 2 4 2 -2
BITMAP
c0
40
40
80
ENDCHAR
STARTCHAR 45
ENCODING 45
SWIDTH 517 0
DWIDTH 7 0
BBX 6 1 0 4
BITMAP
fc
ENDCHAR
STARTCHAR 46
ENCODING 46
SWIDTH 517 0
DWIDTH 7 0
BBX 2 2 2 0
BITMAP
c0
c0
ENDCHAR
STARTCHAR 47
ENCODING 47
SWIDTH 517 0
DWIDTH 7 0
BBX 5 10 1 -1
BITMAP
08
08
10
10
20
20
40
40
80
80
ENDCHAR
STARTCHAR 48
ENCODING 48
SWIDTH 517 0
DWIDTH 7 0
BBX 6 9 0 0
BITMAP
30
48
84
84
84
84
84
48
30
ENDCHAR
STARTCHAR 49
ENCODING 49
SWIDTH 517 0
DWIDTH 7 0
BBX 5 9 1 0
BITMAP
20
60
a0
20
20
20
20
20
f8
ENDCHAR
STARTCHAR 50
ENCODING 50
SWIDTH 517 0
DWIDTH 7 0
BBX 6 9 0 0
BITMAP
78
84
84
04
08
10
20
40
fc
ENDCHAR
STARTCHAR 51
ENCODING 51
SWIDTH 517 0
DWIDTH 7 0
BBX 6 9 0 0
BITMAP
78
84
84
04
38
04
04
84
78
ENDCHAR
STARTCHAR 52
ENCODING 52
SWIDTH 517 0
DWIDTH 7 0
BBX 6 9 0 0
BITMAP
08
18
28
48
48
88
fc
08
08
ENDCHAR
STARTCHAR 53
ENCODING 53
SWIDTH 517 0
DWIDTH 7 0
BBX 6 9 0 0
BITMAP
fc
80
80
f8
04
04
04
84
78
ENDCHAR
STARTCHAR 54
ENCODING 54
SWIDTH 517 0
DWIDTH 7 0
BBX 6 9 0 0
BITMAP
38
40
80
80
f8
84
84
84
78
ENDCHAR
STARTCHAR 55
ENCODING 55
SWIDTH 517 0
DWIDTH 7 0
BBX 6 9 0 0
BITMAP
fc
04
08
08
10
10
20
20
20
ENDCHAR
STARTCHAR 56
ENCODING 56
SWIDTH 517 0
DWIDTH 7 0
BBX 6 9 0 0
BITMAP
78
84
84
48
30
48
84
84
78
ENDCHAR
STARTCHAR 57
ENCODING 57
SWIDTH 517 0
DWIDTH 7 0
BBX 6 9 0 0
BITMAP
78
84
84
84
7c
04
04
08
70
ENDCHAR
STARTCHAR 58
ENCODING 58
SWIDTH 517 0
DWIDTH 7 0
BBX 2 7 2 0
BITMAP
c0
c0
00
00
00
c0
c0
ENDCHAR
STARTCHAR 59
ENCODING 59
SWIDTH 517 0
DWIDTH 7 0
BBX 2 9 2 -2
BITMAP
c0
c0
00
00
00
c0
40
40
80
ENDCHAR
STARTCHAR 60
ENCODING 60
SWIDTH 517 0
DWIDTH 7 0
BBX 5 9 1 0
BITMAP
08
10
20
40
80
40
20
10
08
ENDCHAR
STARTCHAR 61
ENCODING 61
SWIDTH 517 0
DWIDTH 7 0
BBX 6 4 0 2
BITMAP
fc
00
00
fc
ENDCHAR
STARTCHAR 62
ENCODING 62
SWIDTH 517 0
DWIDTH 7 0
BBX 5 9 1 0
BITMAP
80
40
20
10
08
10
20
40
80
ENDCHAR
STARTCHAR 63
ENCODING 63
SWIDTH 517 0
DWIDTH 7 0
BBX 6 9 0 0
BITMAP
78
84
84
08
10
10
00
10
10
ENDCHAR
STARTCHAR 64
ENCODING 64
SWIDTH 517 0
DWIDTH 7 0
BBX 6 9 0 0
BITMAP
38
44
9c
a4
a4
a4
9c
40
3c
ENDCHAR
STARTCHAR 65
ENCODING 65
SWIDTH 517 0
DWIDTH 7 0
BBX 6 9 0 0
BITMAP
30
48
84
84
fc
84
84
84
84
ENDCHAR
STARTCHAR 66
ENCODING 66
SWIDTH 517 0
DWIDTH 7 0
BBX 6 9 0 0
BITMAP
f8
44
44
44
78
44
44
44
f8
ENDCHAR
STARTCHAR 67
ENCODING 67
SWIDTH 517 0
DWIDTH 7 0
BBX 6 9 0 0
BITMAP
78
84
80
80
80
80
80
84
78
ENDCHAR
STARTCHAR 68
ENCODING 68
SWIDTH 517 0
DWIDTH 7 0
BBX 6 9 0 0
BITMAP
f8
44
44
44
44
44
44
44
f8
ENDCHAR
STARTCHAR 69
ENCODING 69
SWIDTH 517 0
DWIDTH 7 0
BBX 6 9 0 0
BITMAP
fc
80
80
80
f0
80
80
80
fc
ENDCHAR
STARTCHAR 70
ENCODING 70
SWIDTH 517 0
DWIDTH 7 0
BBX 6 9 0 0
BITMAP
fc
80
80
80
f8
80
80
80
80
ENDCHAR
STARTCHAR 71
ENCODING 71
SWIDTH 517 0
DWIDTH 7 0
BBX 6 9 0 0
BITMAP
78
84
80
80
9c
84
84
8c
74
ENDCHAR
STARTCHAR 72
ENCODING 72
SWIDTH 517 0
DWIDTH 7 0
BBX 6 9 0 0
BITMAP
84
84
84
84
fc
84
84
84
84
ENDCHAR
STARTCHAR 73
ENCODING 73
SWIDTH 517 0
DWIDTH 7 0
BBX 5 9 0 0
BITMAP
f8
20
20
20
20
20
20
20
f8
ENDCHAR
STARTCHAR 74
ENCODING 74
SWIDTH 517 0
DWIDTH 7 0
BBX 6 9 0 0
BITMAP
1c
08
08
08
08
08
88
88
70
ENDCHAR
STARTCHAR 75
ENCODING 75
SWIDTH 517 0
DWIDTH 7 0
BBX 6 9 0 0
BITMAP
84
88
90
a0
c0
a0
90
88
84
ENDCHAR
STARTCHAR 76
ENCODING 76
SWIDTH 517 0
DWIDTH 7 0
BBX 6 9 0 0
BITMAP
80
80
80
80
80
80
80
80
fc
ENDCHAR
STARTCHAR 77
ENCODING 77
SWIDTH 517 0
DWIDTH 7 0
BBX 6 9 0 0
BITMAP
84
cc
cc
b4
b4
84
84
84
84
ENDCHAR
STARTCHAR 78
ENCODING 78
SWIDTH 517 0
DWIDTH 7 0
BBX 6 9 0 0
BITMAP
84
c4
c4
a4
94
8c
8c
84
84
ENDCHAR
STARTCHAR 79
ENCODING 79
SWIDTH 517 0
DWIDTH 7 0
BBX 6 9 0 0
BITMAP
78
84
84
84
84
84
84
84
78
ENDCHAR
STARTCHAR 80
ENCODING 80
SWIDTH 517 0
DWIDTH 7 0
BBX 6 9 0 0
BITMAP
f8
84
84
84
f8
80
80
80
80
ENDCHAR
STARTCHAR 81
ENCODING 81
SWIDTH 517 0
DWIDTH 7 0
BBX 6 11 0 -2
BITMAP
78
84
84
84
84
e4
94
8c
78
08
04
ENDCHAR
STARTCHAR 82
ENCODING 82
SWIDTH 517 0
DWIDTH 7 0
BBX 6 9 0 0
BITMAP
f8
84
84
84
f8
90
88
84
84
ENDCHAR
STARTCHAR 83
ENCODING 83
SWIDTH 517 0
DWIDTH 7 0
BBX 6 9 0 0
BITMAP
78
84
80
60
18
04
84
84
78
ENDCHAR
STARTCHAR 84
ENCODING 84
SWIDTH 517 0
DWIDTH 7 0
BBX 7 9 0 0
BITMAP
fe
10
10
10
10
10
10
10
10
ENDCHAR
STARTCHAR 85
ENCODING 85
SWIDTH 517 0
DWIDTH 7 0
BBX 6 9 0 0
BITMAP
84
84
84
84
84
84
84
84
78
ENDCHAR
STARTCHAR 86
ENCODING 86
SWIDTH 517 0
DWIDTH 7 0
BBX 6 9 0 0
BITMAP
84
84
84
84
48
48
48
30
30
ENDCHAR
STARTCHAR 87
ENCODING 87
SWIDTH 517 0
DWIDTH 7 0
BBX 6 9 0 0
BITMAP
84
84
84
84
b4
b4
cc
cc
84
ENDCHAR
STARTCHAR 88
ENCODING 88
SWIDTH 517 0
DWIDTH 7 0
BBX 6 9 0 0
BITMAP
84
84
48
48
30
48
48
84
84
ENDCHAR
STARTCHAR 89
ENCODING 89
SWIDTH 517 0
DWIDTH 7 0
BBX 5 9 0 0
BITMAP
88
88
88
88
50
20
20
20
20
ENDCHAR
STARTCHAR 90
ENCODING 90
SWIDTH 517 0
DWIDTH 7 0
BBX 6 9 0 0
BITMAP
fc
04
08
10
20
40
80
80
fc
ENDCHAR
STARTCHAR 91
ENCODING 91
SWIDTH 517 0
DWIDTH 7 0
BBX 4 13 2 -2
BITMAP
f0
80
80
80
80
80
80
80
80
80
80
80
f0
ENDCHAR
STARTCHAR 92
ENCODING 92
SWIDTH 517 0
DWIDTH 7 0
BBX 5 10 1 -1
BITMAP
80
80
40
40
20
20
10
10
08
08
ENDCHAR
STARTCHAR 93
ENCODING 93
SWIDTH 517 0
DWIDTH 7 0
BBX 4 13 0 -2
BITMAP
f0
10
10
10
10
10
10
10
10
10
10
10
f0
ENDCHAR
STARTCHAR 94
ENCODING 94
SWIDTH 517 0
DWIDTH 7 0
BBX 6 3 0 8
BITMAP
30
48
84
ENDCHAR
STARTCHAR 95
ENCODING 95
SWIDTH 517 0
DWIDTH 7 0
BBX 7 1 0 -1
BITMAP
fe
ENDCHAR
STARTCHAR 96
ENCODING 96
SWIDTH 517 0
DWIDTH 7 0
BBX 2 4 3 7
BITMAP
c0
80
80
40
ENDCHAR
STARTCHAR 97
ENCODING 97
SWIDTH 517 0
DWIDTH 7 0
BBX 6 7 0 0
BITMAP
78
84
1c
64
84
8c
74
ENDCHAR
STARTCHAR 98
ENCODING 98
SWIDTH 517 0
DWIDTH 7 0
BBX 6 9 0 0
BITMAP
80
80
b8
c4
84
84
84
c4
b8
ENDCHAR
STARTCHAR 99
ENCODING 99
SWIDTH 517 0
DWIDTH 7 0
BBX 6 7 0 0
BITMAP
78
84
80
80
80
84
78
ENDCHAR
STARTCHAR 100
ENCODING 100
SWIDTH 517 0
DWIDTH 7 0
BBX 6 9 0 0
BITMAP
04
04
74
8c
84
84
84
8c
74
ENDCHAR
STARTCHAR 101
ENCODING 101
SWIDTH 517 0
DWIDTH 7 0
BBX 6 7 0 0
BITMAP
78
84
84
fc
80
84
78
ENDCHAR
STARTCHAR 102
ENCODING 102
SWIDTH 517 0
DWIDTH 7 0
BBX 6 9 0 0
BITMAP
1c
20
20
f8
20
20
20
20
20
ENDCHAR
STARTCHAR 103
ENCODING 103
SWIDTH 517 0
DWIDTH 7 0
BBX 6 9 0 -2
BITMAP
74
88
88
88
70
40
b8
84
78
ENDCHAR
STARTCHAR 104
ENCODING 104
SWIDTH 517 0
DWIDTH 7 0
BBX 6 9 0 0
BITMAP
80
80
b8
c4
84
84
84
84
84
ENDCHAR
STARTCHAR 105
ENCODING 105
SWIDTH 517 0
DWIDTH 7 0
BBX 5 10 1 0
BITMAP
20
20
00
60
20
20
20
20
20
f8
ENDCHAR
STARTCHAR 106
ENCODING 106
SWIDTH 517 0
DWIDTH 7 0
BBX 5 12 0 -2
BITMAP
08
08
00
18
08
08
08
08
08
88
88
70
ENDCHAR
STARTCHAR 107
ENCODING 107
SWIDTH 517 0
DWIDTH 7 0
BBX 6 9 0 0
BITMAP
80
80
88
90
a0
e0
90
88
84
ENDCHAR
STARTCHAR 108
ENCODING 108
SWIDTH 517 0
DWIDTH 7 0
BBX 5 9 1 0
BITMAP
60
20
20
20
20
20
20
20
f8
ENDCHAR
STARTCHAR 109
ENCODING 109
SWIDTH 517 0
DWIDTH 7 0
BBX 5 7 0 0
BITMAP
d0
a8
a8
a8
a8
a8
88
ENDCHAR
STARTCHAR 110
ENCODING 110
SWIDTH 517 0
DWIDTH 7 0
BBX 6 7 0 0
BITMAP
b8
c4
84
84
84
84
84
ENDCHAR
STARTCHAR 111
ENCODING 111
SWIDTH 517 0
DWIDTH 7 0
BBX 6 7 0 0
BITMAP
78
84
84
84
84
84
78
ENDCHAR
STARTCHAR 112
ENCODING 112
SWIDTH 517 0
DWIDTH 7 0
BBX 6 9 0 -2
BITMAP
b8
c4
84
84
84
c4
b8
80
80
ENDCHAR
STARTCHAR 113
ENCODING 113
SWIDTH 517 0
DWIDTH 7 0
BBX 6 9 0 -2
BITMAP
74
8c
84
84
84
8c
74
04
04
ENDCHAR
STARTCHAR 114
ENCODING 114
SWIDTH 517 0
DWIDTH 7 0
BBX 6 7 0 0
BITMAP
b8
c4
80
80
80
80
80
ENDCHAR
STARTCHAR 115
ENCODING 115
SWIDTH 517 0
DWIDTH 7 0
BBX 6 7 0 0
BITMAP
78
84
80
78
04
84
78
ENDCHAR
STARTCHAR 116
ENCODING 116
SWIDTH 517 0
DWIDTH 7 0
BBX 6 9 0 0
BITMAP
20
20
f8
20
20
20
20
24
18
ENDCHAR
STARTCHAR 117
ENCODING 117
SWIDTH 517 0
DWIDTH 7 0
BBX 6 7 0 0
BITMAP
84
84
84
84
84
8c
74
ENDCHAR
STARTCHAR 118
ENCODING 118
SWIDTH 517 0
DWIDTH 7 0
BBX 6 7 0 0
BITMAP
84
84
84
48
48
30
30
ENDCHAR
STARTCHAR 119
ENCODING 119
SWIDTH 517 0
DWIDTH 7 0
BBX 5 7 0 0
BITMAP
88
88
a8
a8
a8
a8
50
ENDCHAR
STARTCHAR 120
ENCODING 120
SWIDTH 517 0
DWIDTH 7 0
BBX 6 7 0 0
BITMAP
84
84
48
30
48
84
84
ENDCHAR
STARTCHAR 121
ENCODING 121
SWIDTH 517 0
DWIDTH 7 0
BBX 6 9 0 -2
BITMAP
84
84
84
84
8c
74
04
04
78
ENDCHAR
STARTCHAR 122
ENCODING 122
SWIDTH 517 0
DWIDTH 7 0
BBX 6 7 0 0
BITMAP
fc
08
10
20
40
80
fc
ENDCHAR
STARTCHAR 123
ENCODING 123
SWIDTH 517 0
DWIDTH 7 0
BBX 5 13 1 -2
BITMAP
18
20
20
20
20
20
c0
20
20
20
20
20
18
ENDCHAR
STARTCHAR 124
ENCODING 124
SWIDTH 517 0
DWIDTH 7 0
BBX 1 13 2 -2
BITMAP
80
80
80
80
80
80
80
80
80
80
80
80
80
ENDCHAR
STARTCHAR 125
ENCODING 125
SWIDTH 517 0
DWIDTH 7 0
BBX 5 13 0 -2
BITMAP
c0
20
20
20
20
20
18
20
20
20
20
20
c0
ENDCHAR
STARTCHAR 126
ENCODING 126
SWIDTH 517 0
DWIDTH 7 0
BBX 6 2 0 8
BITMAP
64
98
ENDCHAR
STARTCHAR 127
ENCODING 127
SWIDTH 517 0
DWIDTH 7 0
BBX 1 1 0 -2
BITMAP
00
ENDCHAR
STARTCHAR 160
ENCODING 160
SWIDTH 517 0
DWIDTH 7 0
BBX 1 1 0 -2
BITMAP
00
ENDCHAR
STARTCHAR 161
ENCODING 161
SWIDTH 517 0
DWIDTH 7 0
BBX 6 11 0 -2
BITMAP
30
48
84
84
fc
84
84
84
8c
10
1c
ENDCHAR
STARTCHAR 162
ENCODING 162
SWIDTH 517 0
DWIDTH 7 0
BBX 6 2 0 9
BITMAP
84
78
ENDCHAR
STARTCHAR 163
ENCODING 163
SWIDTH 517 0
DWIDTH 7 0
BBX 7 9 0 0
BITMAP
40
40
48
50
60
40
c0
40
7e
ENDCHAR
STARTCHAR 164
ENCODING 164
SWIDTH 517 0
DWIDTH 7 0
BBX 6 6 0 2
BITMAP
84
78
48
48
78
84
ENDCHAR
STARTCHAR 165
ENCODING 165
SWIDTH 517 0
DWIDTH 7 0
BBX 6 10 0 0
BITMAP
18
88
90
80
80
80
80
80
80
fc
ENDCHAR
STARTCHAR 166
ENCODING 166
SWIDTH 517 0
DWIDTH 7 0
BBX 6 12 0 0
BITMAP
0c
30
00
78
84
80
60
18
04
84
84
78
ENDCHAR
STARTCHAR 167
ENCODING 167
SWIDTH 517 0
DWIDTH 7 0
BBX 5 10 0 0
BITMAP
70
88
80
70
88
88
70
08
88
70
ENDCHAR
STARTCHAR 168
ENCODING 168
SWIDTH 517 0
DWIDTH 7 0
BBX 4 2 1 9
BITMAP
90
90
ENDCHAR
STARTCHAR 169
ENCODING 169
SWIDTH 517 0
DWIDTH 7 0
BBX 6 12 0 0
BITMAP
48
30
00
78
84
80
60
18
04
84
84
78
ENDCHAR
STARTCHAR 170
ENCODING 170
SWIDTH 517 0
DWIDTH 7 0
BBX 6 11 0 -2
BITMAP
78
84
80
60
18
04
84
84
78
10
20
ENDCHAR
STARTCHAR 171
ENCODING 171
SWIDTH 517 0
DWIDTH 7 0
BBX 7 12 0 0
BITMAP
24
18
00
fe
10
10
10
10
10
10
10
10
ENDCHAR
STARTCHAR 172
ENCODING 172
SWIDTH 517 0
DWIDTH 7 0
BBX 6 12 0 0
BITMAP
0c
30
00
fc
04
08
10
20
40
80
80
fc
ENDCHAR
STARTCHAR 173
ENCODING 173
SWIDTH 517 0
DWIDTH 7 0
BBX 5 1 0 3
BITMAP
f8
ENDCHAR
STARTCHAR 174
ENCODING 174
SWIDTH 517 0
DWIDTH 7 0
BBX 6 12 0 0
BITMAP
48
30
00
fc
04
08
10
20
40
80
80
fc
ENDCHAR
STARTCHAR 175
ENCODING 175
SWIDTH 517 0
DWIDTH 7 0
BBX 6 12 0 0
BITMAP
30
30
00
fc
04
08
10
20
40
80
80
fc
ENDCHAR
STARTCHAR 176
ENCODING 176
SWIDTH 517 0
DWIDTH 7 0
BBX 4 4 1 7
BITMAP
60
90
90
60
ENDCHAR
STARTCHAR 177
ENCODING 177
SWIDTH 517 0
DWIDTH 7 0
BBX 6 9 0 -2
BITMAP
78
84
1c
64
84
8c
74
10
1c
ENDCHAR
STARTCHAR 178
ENCODING 178
SWIDTH 517 0
DWIDTH 7 0
BBX 4 3 2 -2
BITMAP
40
80
70
ENDCHAR
STARTCHAR 179
ENCODING 179
SWIDTH 517 0
DWIDTH 7 0
BBX 5 9 0 0
BITMAP
60
20
28
30
60
a0
20
20
f8
ENDCHAR
STARTCHAR 180
ENCODING 180
SWIDTH 517 0
DWIDTH 7 0
BBX 4 2 1 9
BITMAP
30
c0
ENDCHAR
STARTCHAR 181
ENCODING 181
SWIDTH 517 0
DWIDTH 7 0
BBX 6 11 0 0
BITMAP
0c
04
64
28
20
20
20
20
20
20
f8
ENDCHAR
STARTCHAR 182
ENCODING 182
SWIDTH 517 0
DWIDTH 7 0
BBX 6 10 0 0
BITMAP
0c
30
00
78
84
80
78
04
84
78
ENDCHAR
STARTCHAR 183
ENCODING 183
SWIDTH 517 0
DWIDTH 7 0
BBX 4 2 1 9
BITMAP
90
60
ENDCHAR
STARTCHAR 184
ENCODING 184
SWIDTH 517 0
DWIDTH 7 0
BBX 3 3 1 -2
BITMAP
40
20
e0
ENDCHAR
STARTCHAR 185
ENCODING 185
SWIDTH 517 0
DWIDTH 7 0
BBX 6 10 0 0
BITMAP
48
30
00
78
84
80
78
04
84
78
ENDCHAR
STARTCHAR 186
ENCODING 186
SWIDTH 517 0
DWIDTH 7 0
BBX 6 9 0 -2
BITMAP
78
84
80
78
04
84
78
10
20
ENDCHAR
STARTCHAR 187
ENCODING 187
SWIDTH 517 0
DWIDTH 7 0
BBX 7 11 0 0
BITMAP
06
02
22
24
f8
20
20
20
20
24
18
ENDCHAR
STARTCHAR 188
ENCODING 188
SWIDTH 517 0
DWIDTH 7 0
BBX 6 10 0 0
BITMAP
0c
30
00
fc
08
10
20
40
80
fc
ENDCHAR
STARTCHAR 189
ENCODING 189
SWIDTH 517 0
DWIDTH 7 0
BBX 6 2 0 9
BITMAP
44
88
ENDCHAR
STARTCHAR 190
ENCODING 190
SWIDTH 517 0
DWIDTH 7 0
BBX 6 10 0 0
BITMAP
48
30
00
fc
08
10
20
40
80
fc
ENDCHAR
STARTCHAR 191
ENCODING 191
SWIDTH 517 0
DWIDTH 7 0
BBX 6 10 0 0
BITMAP
30
30
00
fc
08
10
20
40
80
fc
ENDCHAR
STARTCHAR 192
ENCODING 192
SWIDTH 517 0
DWIDTH 7 0
BBX 6 12 0 0
BITMAP
0c
30
00
f8
84
84
84
f8
90
88
84
84
ENDCHAR
STARTCHAR 193
ENCODING 193
SWIDTH 517 0
DWIDTH 7 0
BBX 6 12 0 0
BITMAP
0c
30
00
30
48
84
84
fc
84
84
84
84
ENDCHAR
STARTCHAR 194
ENCODING 194
SWIDTH 517 0
DWIDTH 7 0
BBX 6 12 0 0
BITMAP
30
48
00
30
48
84
84
fc
84
84
84
84
ENDCHAR
STARTCHAR 195
ENCODING 195
SWIDTH 517 0
DWIDTH 7 0
BBX 6 12 0 0
BITMAP
84
78
00
30
48
84
84
fc
84
84
84
84
ENDCHAR
STARTCHAR 196
ENCODING 196
SWIDTH 517 0
DWIDTH 7 0
BBX 6 12 0 0
BITMAP
48
48
00
30
48
84
84
fc
84
84
84
84
ENDCHAR
STARTCHAR 197
ENCODING 197
SWIDTH 517 0
DWIDTH 7 0
BBX 6 12 0 0
BITMAP
18
60
00
80
80
80
80
80
80
80
80
fc
ENDCHAR
STARTCHAR 198
ENCODING 198
SWIDTH 517 0
DWIDTH 7 0
BBX 6 12 0 0
BITMAP
0c
30
00
78
84
80
80
80
80
80
84
78
ENDCHAR
STARTCHAR 199
ENCODING 199
SWIDTH 517 0
DWIDTH 7 0
BBX 6 11 0 -2
BITMAP
78
84
80
80
80
80
80
84
78
10
60
ENDCHAR
STARTCHAR 200
ENCODING 200
SWIDTH 517 0
DWIDTH 7 0
BBX 6 12 0 0
BITMAP
48
30
00
78
84
80
80
80
80
80
84
78
ENDCHAR
STARTCHAR 201
ENCODING 201
SWIDTH 517 0
DWIDTH 7 0
BBX 6 12 0 0
BITMAP
0c
30
00
fc
80
80
80
f0
80
80
80
fc
ENDCHAR
STARTCHAR 202
ENCODING 202
SWIDTH 517 0
DWIDTH 7 0
BBX 6 11 0 -2
BITMAP
fc
80
80
80
f0
80
80
80
fc
10
0c
ENDCHAR
STARTCHAR 203
ENCODING 203
SWIDTH 517 0
DWIDTH 7 0
BBX 6 12 0 0
BITMAP
48
48
00
fc
80
80
80
f0
80
80
80
fc
ENDCHAR
STARTCHAR 204
ENCODING 204
SWIDTH 517 0
DWIDTH 7 0
BBX 6 12 0 0
BITMAP
48
30
00
fc
80
80
80
f0
80
80
80
fc
ENDCHAR
STARTCHAR 205
ENCODING 205
SWIDTH 517 0
DWIDTH 7 0
BBX 6 12 0 0
BITMAP
0c
30
00
f8
20
20
20
20
20
20
20
f8
ENDCHAR
STARTCHAR 206
ENCODING 206
SWIDTH 517 0
DWIDTH 7 0
BBX 5 12 0 0
BITMAP
30
48
00
f8
20
20
20
20
20
20
20
f8
ENDCHAR
STARTCHAR 207
ENCODING 207
SWIDTH 517 0
DWIDTH 7 0
BBX 6 12 0 0
BITMAP
48
30
00
f8
44
44
44
44
44
44
44
f8
ENDCHAR
STARTCHAR 208
ENCODING 208
SWIDTH 517 0
DWIDTH 7 0
BBX 6 9 0 0
BITMAP
f8
44
44
44
e4
44
44
44
f8
ENDCHAR
STARTCHAR 209
ENCODING 209
SWIDTH 517 0
DWIDTH 7 0
BBX 6 12 0 0
BITMAP
0c
30
00
84
c4
c4
a4
94
8c
8c
84
84
ENDCHAR
STARTCHAR 210
ENCODING 210
SWIDTH 517 0
DWIDTH 7 0
BBX 6 12 0 0
BITMAP
48
30
00
84
c4
c4
a4
94
8c
8c
84
84
ENDCHAR
STARTCHAR 211
ENCODING 211
SWIDTH 517 0
DWIDTH 7 0
BBX 6 12 0 0
BITMAP
0c
30
00
78
84
84
84
84
84
84
84
78
ENDCHAR
STARTCHAR 212
ENCODING 212
SWIDTH 517 0
DWIDTH 7 0
BBX 6 12 0 0
BITMAP
30
48
00
78
84
84
84
84
84
84
84
78
ENDCHAR
STARTCHAR 213
ENCODING 213
SWIDTH 517 0
DWIDTH 7 0
BBX 6 12 0 0
BITMAP
24
48
00
78
84
84
84
84
84
84
84
78
ENDCHAR
STARTCHAR 214
ENCODING 214
SWIDTH 517 0
DWIDTH 7 0
BBX 6 12 0 0
BITMAP
48
48
00
78
84
84
84
84
84
84
84
78
ENDCHAR
STARTCHAR 215
ENCODING 215
SWIDTH 517 0
DWIDTH 7 0
BBX 5 5 0 1
BITMAP
88
50
20
50
88
ENDCHAR
STARTCHAR 216
ENCODING 216
SWIDTH 517 0
DWIDTH 7 0
BBX 6 12 0 0
BITMAP
48
30
00
f8
84
84
84
f8
90
88
84
84
ENDCHAR
STARTCHAR 217
ENCODING 217
SWIDTH 517 0
DWIDTH 7 0
BBX 6 12 0 0
BITMAP
30
48
30
84
84
84
84
84
84
84
84
78
ENDCHAR
STARTCHAR 218
ENCODING 218
SWIDTH 517 0
DWIDTH 7 0
BBX 6 12 0 0
BITMAP
0c
30
00
84
84
84
84
84
84
84
84
78
ENDCHAR
STARTCHAR 219
ENCODING 219
SWIDTH 517 0
DWIDTH 7 0
BBX 6 12 0 0
BITMAP
24
48
00
84
84
84
84
84
84
84
84
78
ENDCHAR
STARTCHAR 220
ENCODING 220
SWIDTH 517 0
DWIDTH 7 0
BBX 6 12 0 0
BITMAP
48
48
00
84
84
84
84
84
84
84
84
78
ENDCHAR
STARTCHAR 221
ENCODING 221
SWIDTH 517 0
DWIDTH 7 0
BBX 6 12 0 0
BITMAP
0c
30
00
88
88
88
88
50
20
20
20
20
ENDCHAR
STARTCHAR 222
ENCODING 222
SWIDTH 517 0
DWIDTH 7 0
BBX 6 11 0 -2
BITMAP
fc
20
20
20
20
20
20
20
20
10
20
ENDCHAR
STARTCHAR 223
ENCODING 223
SWIDTH 517 0
DWIDTH 7 0
BBX 6 9 0 0
BITMAP
70
88
88
88
f8
84
84
c4
b8
ENDCHAR
STARTCHAR 224
ENCODING 224
SWIDTH 517 0
DWIDTH 7 0
BBX 6 10 0 0
BITMAP
0c
30
00
b8
c4
80
80
80
80
80
ENDCHAR
STARTCHAR 225
ENCODING 225
SWIDTH 517 0
DWIDTH 7 0
BBX 6 10 0 0
BITMAP
0c
30
00
78
84
1c
64
84
8c
74
ENDCHAR
STARTCHAR 226
ENCODING 226
SWIDTH 517 0
DWIDTH 7 0
BBX 6 10 0 0
BITMAP
30
48
00
78
84
1c
64
84
8c
74
ENDCHAR
STARTCHAR 227
ENCODING 227
SWIDTH 517 0
DWIDTH 7 0
BBX 6 10 0 0
BITMAP
84
78
00
78
84
1c
64
84
8c
74
ENDCHAR
STARTCHAR 228
ENCODING 228
SWIDTH 517 0
DWIDTH 7 0
BBX 6 10 0 0
BITMAP
48
48
00
78
84
1c
64
84
8c
74
ENDCHAR
STARTCHAR 229
ENCODING 229
SWIDTH 517 0
DWIDTH 7 0
BBX 5 12 1 0
BITMAP
18
60
00
60
20
20
20
20
20
20
20
f8
ENDCHAR
STARTCHAR 230
ENCODING 230
SWIDTH 517 0
DWIDTH 7 0
BBX 6 10 0 0
BITMAP
0c
30
00
78
84
80
80
80
84
78
ENDCHAR
STARTCHAR 231
ENCODING 231
SWIDTH 517 0
DWIDTH 7 0
BBX 6 9 0 -2
BITMAP
78
84
80
80
80
84
78
10
60
ENDCHAR
STARTCHAR 232
ENCODING 232
SWIDTH 517 0
DWIDTH 7 0
BBX 6 10 0 0
BITMAP
48
30
00
78
84
80
80
80
84
78
ENDCHAR
STARTCHAR 233
ENCODING 233
SWIDTH 517 0
DWIDTH 7 0
BBX 6 10 0 0
BITMAP
0c
30
00
78
84
84
fc
80
84
78
ENDCHAR
STARTCHAR 234
ENCODING 234
SWIDTH 517 0
DWIDTH 7 0
BBX 6 9 0 -2
BITMAP
78
84
84
fc
80
84
78
10
0c
ENDCHAR
STARTCHAR 235
ENCODING 235
SWIDTH 517 0
DWIDTH 7 0
BBX 6 10 0 0
BITMAP
48
48
00
78
84
84
fc
80
84
78
ENDCHAR
STARTCHAR 236
ENCODING 236
SWIDTH 517 0
DWIDTH 7 0
BBX 6 10 0 0
BITMAP
48
30
00
78
84
84
fc
80
84
78
ENDCHAR
STARTCHAR 237
ENCODING 237
SWIDTH 517 0
DWIDTH 7 0
BBX 5 10 1 0
BITMAP
18
60
00
60
20
20
20
20
20
f8
ENDCHAR
STARTCHAR 238
ENCODING 238
SWIDTH 517 0
DWIDTH 7 0
BBX 5 10 1 0
BITMAP
60
90
00
60
20
20
20
20
20
f8
ENDCHAR
STARTCHAR 239
ENCODING 239
SWIDTH 517 0
DWIDTH 7 0
BBX 7 11 0 0
BITMAP
06
02
0c
08
68
98
88
88
88
98
68
ENDCHAR
STARTCHAR 240
ENCODING 240
SWIDTH 517 0
DWIDTH 7 0
BBX 7 10 0 0
BITMAP
04
1e
04
74
8c
84
84
84
8c
74
ENDCHAR
STARTCHAR 241
ENCODING 241
SWIDTH 517 0
DWIDTH 7 0
BBX 6 10 0 0
BITMAP
0c
30
00
b8
c4
84
84
84
84
84
ENDCHAR
STARTCHAR 242
ENCODING 242
SWIDTH 517 0
DWIDTH 7 0
BBX 6 10 0 0
BITMAP
48
30
00
b8
c4
84
84
84
84
84
ENDCHAR
STARTCHAR 243
ENCODING 243
SWIDTH 517 0
DWIDTH 7 0
BBX 6 10 0 0
BITMAP
0c
30
00
78
84
84
84
84
84
78
ENDCHAR
STARTCHAR 244
ENCODING 244
SWIDTH 517 0
DWIDTH 7 0
BBX 6 10 0 0
BITMAP
30
48
00
78
84
84
84
84
84
78
ENDCHAR
STARTCHAR 245
ENCODING 245
SWIDTH 517 0
DWIDTH 7 0
BBX 6 10 0 0
BITMAP
24
48
00
78
84
84
84
84
84
78
ENDCHAR
STARTCHAR 246
ENCODING 246
SWIDTH 517 0
DWIDTH 7 0
BBX 6 10 0 0
BITMAP
48
48
00
78
84
84
84
84
84
78
ENDCHAR
STARTCHAR 247
ENCODING 247
SWIDTH 517 0
DWIDTH 7 0
BBX 6 5 0 1
BITMAP
30
00
fc
00
30
ENDCHAR
STARTCHAR 248
ENCODING 248
SWIDTH 517 0
DWIDTH 7 0
BBX 6 10 0 0
BITMAP
48
30
00
b8
c4
80
80
80
80
80
ENDCHAR
STARTCHAR 249
ENCODING 249
SWIDTH 517 0
DWIDTH 7 0
BBX 6 11 0 0
BITMAP
30
48
30
00
84
84
84
84
84
8c
74
ENDCHAR
STARTCHAR 250
ENCODING 250
SWIDTH 517 0
DWIDTH 7 0
BBX 6 10 0 0
BITMAP
0c
30
00
84
84
84
84
84
8c
74
ENDCHAR
STARTCHAR 251
ENCODING 251
SWIDTH 517 0
DWIDTH 7 0
BBX 6 10 0 0
BITMAP
24
48
00
84
84
84
84
84
8c
74
ENDCHAR
STARTCHAR 252
ENCODING 252
SWIDTH 517 0
DWIDTH 7 0
BBX 6 10 0 0
BITMAP
48
48
00
84
84
84
84
84
8c
74
ENDCHAR
STARTCHAR 253
ENCODING 253
SWIDTH 517 0
DWIDTH 7 0
BBX 6 12 0 -2
BITMAP
0c
30
00
84
84
84
84
8c
74
04
04
78
ENDCHAR
STARTCHAR 254
ENCODING 254
SWIDTH 517 0
DWIDTH 7 0
BBX 6 11 0 -2
BITMAP
20
20
f8
20
20
20
20
24
18
10
20
ENDCHAR
STARTCHAR 255
ENCODING 255
SWIDTH 517 0
DWIDTH 7 0
BBX 2 2 2 9
BITMAP
c0
c0
ENDCHAR
ENDFONT
